<svg width="268" height="268" viewBox="0 0 268 268" fill="none" xmlns="http://www.w3.org/2000/svg">
<path d="M98.2667 125.067H169.733V107.2H98.2667V125.067ZM178.667 134V187.6H196.533V134H178.667ZM169.733 196.533H98.2667V214.4H169.733V196.533ZM89.3333 187.6V134H71.4667V187.6H89.3333ZM98.2667 196.533C95.8974 196.533 93.6252 195.592 91.9499 193.917C90.2745 192.242 89.3333 189.969 89.3333 187.6H71.4667C71.4667 194.708 74.2902 201.524 79.3162 206.55C84.3422 211.576 91.1589 214.4 98.2667 214.4V196.533ZM178.667 187.6C178.667 189.969 177.725 192.242 176.05 193.917C174.375 195.592 172.103 196.533 169.733 196.533V214.4C176.841 214.4 183.658 211.576 188.684 206.55C193.71 201.524 196.533 194.708 196.533 187.6H178.667ZM169.733 125.067C172.103 125.067 174.375 126.008 176.05 127.683C177.725 129.359 178.667 131.631 178.667 134H196.533C196.533 126.892 193.71 120.076 188.684 115.05C183.658 110.024 176.841 107.2 169.733 107.2V125.067ZM98.2667 107.2C91.1589 107.2 84.3422 110.024 79.3162 115.05C74.2902 120.076 71.4667 126.892 71.4667 134H89.3333C89.3333 131.631 90.2745 129.359 91.9499 127.683C93.6252 126.008 95.8974 125.067 98.2667 125.067V107.2ZM107.2 116.133V100.429H89.3333V116.133H107.2ZM156.655 79.9533L163.409 86.7248L176.058 74.0752L169.269 67.3216L156.655 79.9533ZM136.144 71.4667C143.827 71.4667 151.223 74.504 156.655 79.9533L169.269 67.3216C164.919 62.9707 159.755 59.5194 154.072 57.165C148.388 54.8106 142.296 53.5992 136.144 53.6V71.4667ZM107.2 100.429C107.2 84.4379 120.153 71.4667 136.144 71.4667V53.6C123.724 53.6 111.831 58.5337 103.049 67.3158C94.267 76.0978 89.3333 88.0088 89.3333 100.429H107.2ZM134 250.133C103.2 250.133 73.6606 237.898 51.8813 216.119C30.1021 194.339 17.8667 164.8 17.8667 134H0C0 169.539 14.1178 203.622 39.2477 228.752C64.3776 253.882 98.461 268 134 268V250.133ZM250.133 134C250.133 149.251 247.129 164.352 241.293 178.442C235.457 192.532 226.903 205.335 216.119 216.119C205.335 226.903 192.532 235.457 178.442 241.293C164.352 247.129 149.251 250.133 134 250.133V268C169.539 268 203.622 253.882 228.752 228.752C253.882 203.622 268 169.539 268 134H250.133ZM134 17.8667C149.251 17.8667 164.352 20.8705 178.442 26.7068C192.532 32.543 205.335 41.0974 216.119 51.8813C226.903 62.6653 235.457 75.4678 241.293 89.5577C247.129 103.648 250.133 118.749 250.133 134H268C268 98.461 253.882 64.3776 228.752 39.2477C203.622 14.1178 169.539 0 134 0V17.8667ZM134 0C98.461 0 64.3776 14.1178 39.2477 39.2477C14.1178 64.3776 0 98.461 0 134H17.8667C17.8667 103.2 30.1021 73.6606 51.8813 51.8813C73.6606 30.1021 103.2 17.8667 134 17.8667V0Z" fill="#FBDC3E"/>
</svg>
